<?xml version="1.0" encoding="UTF-8" standalone="no"?>
<svg width="156px" height="193px" viewBox="0 0 156 193" version="1.1" xmlns="http://www.w3.org/2000/svg" xmlns:xlink="http://www.w3.org/1999/xlink">
    <!-- Generator: Sketch 40.3 (33839) - http://www.bohemiancoding.com/sketch -->
    <title>Combined Shape</title>
    <desc>Created with Sketch.</desc>
    <defs></defs>
    <g id="Page-1" stroke="none" stroke-width="1" fill="none" fill-rule="evenodd">
        <path d="M129.000028,152.880838 C129.000904,152.881381 129.001343,152.881653 129.001343,152.881653 L129.165468,189.954711 L153,189.954711 L153,153 C153,153 153,102.30202 153,78 L153,77.9965757 C153,36.5787706 119.421356,3 78,3 C36.5695363,3 3,36.5743235 3,77.9903503 L3,78 L3,120.594252 L27.7751412,120.594252 C27.8509767,120.514712 27.9262054,120.431541 28.0000001,120.344718 L28,114.517646 C27.929105,114.410595 27.8541994,114.302333 27.7751412,114.192855 C19.3370401,114.192855 18.9737641,101.481709 27.7751412,101.481709 C27.8490443,101.481709 27.9240005,101.482547 28,101.484215 L28,78.490522 C28,50.6053767 50.6034878,28 78.5,28 C106.39038,28 129,50.6021248 129,78.490522 L129,152.880821 Z" id="Combined-Shape" stroke="#D0011B" stroke-width="5" fill="#FF4949"></path>
    </g>
</svg>